<svg viewBox="0 0 1680 293" fill="none" xmlns="http://www.w3.org/2000/svg">
<path d="M340.805 139.111C366.119 137.608 392.204 138.944 417.607 138.974C434.863 138.994 453.137 137.512 470.248 138.933C473.641 139.215 477.354 139.775 480.062 141.981C481.258 143.9 481.719 145.772 481.908 148.001C482.757 158.056 475.608 186.712 468.989 194.385C466.135 197.692 462.926 198.757 458.75 199.05C442.058 199.234 328.558 200.888 322.29 197.785C320.971 197.132 319.925 195.363 319.441 194.021C317.297 188.092 325.882 155.918 328.988 149.428C331.663 143.836 335.062 141.134 340.805 139.111Z" fill="#E52DDD"/>
<path d="M1408.99 21.749C1418.72 20.2956 1429.34 21.0564 1439.2 21.0607L1491.44 21.1048L1578.66 21.0522C1593.99 21.0237 1609.53 20.4961 1624.84 21.0661C1628.29 21.1948 1633.33 21.2401 1636.39 23.0254C1638.36 24.1767 1639.78 26.8506 1640.29 29.0012C1642.15 36.8457 1631.88 70.4991 1627.42 77.6268C1625.63 80.4954 1623.59 81.876 1620.38 82.808C1608.74 86.1899 1553.66 83.9909 1537.5 83.905C1531.13 83.8711 1523.09 82.9147 1516.9 84.4073C1514.75 84.9253 1513.9 85.5064 1512.78 87.4301C1512.18 88.4548 1511.83 90.4251 1512.15 91.5689L1512.2 91.7178C1513.05 94.7034 1521.95 101.047 1524.45 103.704C1527.78 107.243 1531.02 111.245 1530.86 116.351L1493.23 261.868C1492.65 263.407 1491.86 264.66 1490.57 265.716C1489.37 268.389 1485.5 269.713 1482.98 270.788C1473.85 271.926 1438.37 272.152 1430.76 269.557C1427.23 267.111 1427.65 260.514 1428.1 256.682C1429.85 241.921 1436.42 223.661 1440.38 209.017L1465.71 115.24C1467.42 109.027 1474.39 89.4089 1473.1 84.0709C1460.81 84.0306 1399.52 85.4516 1393.21 83.0485C1391.41 82.3635 1390.11 80.6353 1389.36 78.9206C1385.34 69.6916 1393.68 43.9681 1397.26 34.7335C1399.83 28.0927 1402.37 24.6641 1408.99 21.749Z" fill="#E52DDD"/>
<path d="M573.931 21.7486C584.201 20.3411 616.905 19.3599 625.242 23.1402C625.885 23.4316 627.617 24.4205 627.861 25.1026C629.282 29.0698 628.7 34.5765 627.984 38.668C624.489 58.6304 617.6 78.8767 612.345 98.5119C607.914 115.07 601.643 144.719 595.113 158.97C591.277 167.341 581.54 171.745 577.87 179.539L579.733 180.623C583.238 180.823 586.013 178.811 588.609 176.685C593.33 172.817 597.54 167.945 601.868 163.615L627.89 137.594L711.339 54.2857C719.032 46.6169 734.18 28.9202 743.147 24.265C751.938 19.7011 795.847 19.3543 805.387 22.3571C806.811 23.6763 807.528 24.3421 808.037 26.3012C808.604 28.4828 808.225 31.9058 807.116 33.8407C807.097 33.8831 807.079 33.926 807.058 33.9678C806.121 35.8532 805.09 37.3098 803.657 38.8472C780.482 63.701 755.041 86.9508 730.848 110.837C723.441 118.15 702.286 141.344 694.9 145.682C694.757 146.182 694.319 147.232 694.319 147.718C694.32 150.536 699.498 159.086 700.896 162.011L728.072 218.938C733.172 229.527 739.136 240.214 743.337 251.182C744.512 254.25 745.402 257.506 745.456 260.811C745.501 263.501 744.94 266.962 742.926 268.941C742.342 269.515 741.325 270.28 740.555 270.58C735.737 272.451 688.808 271.012 680.555 270.842C679.849 268.241 675.418 264.8 673.963 261.704C669.678 252.581 647.572 201.165 643.393 197.554C638.957 204.275 587.642 254.603 579.237 261.971C575.962 264.841 572.412 267.418 568.496 269.344C566.137 270.504 563.783 270.921 561.188 271.129C555.299 271.601 511.562 271.524 507.291 270.031C505.581 269.433 503.859 268.47 503.068 266.764C501.61 263.618 501.859 260.107 502.506 256.806C505.387 242.099 510.225 227.381 514.102 212.876L537.903 124.417L553.645 65.6225C556.508 54.771 558.809 42.9949 562.797 32.5421C565.071 26.5812 568.305 24.2754 573.931 21.7486Z" fill="#E52DDD"/>
<path d="M129.029 21.4121L243.082 21.4151C261.887 21.4165 281.047 20.6078 299.792 21.6482C302.304 21.7876 307.943 21.8681 309.803 23.6565C311.722 25.5018 312.302 28.6609 312.348 31.1968C312.505 39.8107 303.126 74.8161 297.399 80.6368C294.452 83.6312 289.685 84.1534 285.674 84.596C269.989 86.327 253.053 85.1078 237.254 85.106L144.141 85.0737C140.177 105.497 132.67 128.509 127.337 148.985L136.641 148.908C144.755 140.244 160.846 123.924 170.937 118.603C173.096 117.464 175.905 117.033 178.305 116.667C188.566 115.102 263.056 114.162 268.334 118.054C270.409 120.682 270.91 123.68 270.949 126.949C271.079 137.991 264.527 165.474 256.651 173.436C254.848 175.258 253.25 176.251 250.712 176.678C241.19 178.282 229.933 177.162 220.244 177.154L156.27 177.078L120.143 177.101C116.754 187.167 114.29 197.642 111.532 207.9L206.957 207.865C221.323 207.864 242.54 205.975 256.149 209.108C258.047 209.545 259.779 209.906 260.851 211.716C264.596 218.04 255.822 246.931 253.841 254.342C251.72 262.275 249.084 266.659 241.881 270.846C212.117 271.99 181.872 270.967 152.059 270.973C124.244 270.979 95.9196 272.083 68.1695 270.866C64.799 270.718 61.0376 270.476 57.9024 269.12C54.3053 267.564 41.6646 246.461 39.8447 241.852C37.8805 236.876 39.2116 229.342 40.1914 224.209C42.3519 212.892 45.9928 201.602 48.9994 190.475L63.5387 135.718L76.0157 88.7962C78.6601 78.8496 80.8642 68.0582 84.9991 58.621L129.029 21.4121Z" fill="#70C0FA"/>
<path fill-rule="evenodd" clip-rule="evenodd" d="M1014.31 22.4974C1005.71 19.7919 936.724 20.1368 926.008 21.7489C921.893 23.4971 918.456 24.9679 915.611 28.5911C907.372 39.0862 900.073 50.8435 892.861 62.461C889.691 67.5669 886.539 72.6458 883.33 77.5786L819.75 175.483L783.814 230.1C782.414 232.25 780.908 234.438 779.38 236.659C774.921 243.139 770.267 249.902 767.465 256.848C766.08 260.28 764.779 263.91 766.216 267.529C772.214 273.218 810.446 271.566 821.963 271.068C822.324 271.052 822.658 271.038 822.965 271.025C826.985 270.853 831.763 266.432 834.326 263.565C837.639 259.858 852.279 239.191 852.246 235.045L886.553 235.037C896.357 235.036 906.189 235.127 916.03 235.218C936.571 235.409 957.151 235.599 977.594 234.957L977.714 235.209C979.415 238.837 979.676 244.1 979.94 249.455C980.374 258.236 980.82 267.265 987.651 269.747C994.242 272.142 1035.13 272.173 1041.58 269.096C1043.73 268.075 1045.75 266.58 1046.54 264.257C1047.83 260.426 1047.7 255.557 1047.41 251.58C1046.67 241.283 1045.28 230.926 1043.89 220.612C1043.27 216.076 1042.66 211.549 1042.11 207.039L1033.57 135.119C1032.2 123.885 1031 112.404 1029.8 100.861C1027.52 78.9258 1025.21 56.7709 1021.65 35.6812C1021.08 32.3165 1020.26 28.603 1018.72 25.5351C1017.77 23.6444 1016.22 23.0989 1014.31 22.4974ZM957.807 86.9968C954.303 86.9629 950.724 86.9282 947.351 87.407C947.203 90.6365 940.967 99.5855 937.041 105.219C935.975 106.749 935.079 108.035 934.522 108.895L893.15 172.794C891.345 175.583 889.355 178.439 887.332 181.342C882.559 188.192 877.6 195.309 874.443 202.449L874.385 202.58C873.565 204.431 872.866 206.009 874.177 207.642C878.361 207.197 883.001 203.093 885.554 199.948C885.987 199.415 886.219 198.869 886.384 198.206C890.062 195.921 893.076 192.718 896.1 189.505C898.79 186.648 901.487 183.783 904.664 181.548C905.685 180.832 906.74 180.169 907.828 179.56C908.916 178.951 910.032 178.398 911.176 177.901C912.319 177.404 913.485 176.967 914.674 176.588C915.862 176.209 917.066 175.891 918.286 175.634C927.809 173.705 944.284 174.209 957.927 174.627C962.768 174.776 967.252 174.913 970.943 174.927C972.562 170.661 964.624 93.2618 962.306 88.1179C962.124 87.7127 961.896 87.3582 961.624 87.0085C960.371 87.0217 959.094 87.0093 957.807 86.9968Z" fill="#E52DDD"/>
<path fill-rule="evenodd" clip-rule="evenodd" d="M1339.71 22.5762C1330.97 20.2619 1188.59 19.8617 1178.99 21.7488C1163.72 29.3341 1139.51 47.8628 1133.99 64.3051C1130.91 73.4744 1128.49 82.9981 1126.08 92.4617C1125.12 96.2621 1124.15 100.053 1123.15 103.807L1104.51 173.776C1100.1 190.593 1095.58 207.378 1090.93 224.129C1090.19 226.812 1089.42 229.502 1088.64 232.198C1086.65 239.083 1084.65 246.009 1083.26 252.964C1082.52 256.683 1081.22 263.607 1083.03 267.128C1083.91 268.854 1085.85 269.513 1087.62 270.035C1095.07 272.241 1129.03 271.676 1138.12 270.83C1143.49 268.376 1146.07 266.525 1148.2 260.809C1151.09 253.034 1168.05 194.228 1167.82 189.221C1182.64 188.614 1197.58 188.745 1212.47 188.877C1218.43 188.929 1224.38 188.982 1230.32 188.987C1233.15 193.349 1243.14 227.812 1242.1 232.603C1242.06 232.79 1242 232.973 1241.95 233.157L1242.09 233.32C1245.5 237.204 1246.63 243.711 1247.76 250.21C1249.08 257.758 1250.39 265.297 1255.26 268.708C1257.53 270.301 1261.79 270.731 1264.52 270.938C1274.79 271.719 1308.9 273.457 1316.63 266.933C1318.29 265.529 1318.55 263.414 1318.68 261.345C1318.9 257.819 1318.5 253.981 1317.78 250.524C1316.13 242.481 1302.64 191.83 1299.59 188.459C1299.54 188.404 1299.49 188.35 1299.44 188.296C1305.11 185.03 1353.98 125.236 1360.81 115.979C1363.05 112.935 1365.68 109.171 1366.73 105.488C1367.57 102.537 1366.47 97.378 1365.81 94.415C1363.71 84.9325 1348.59 33.2838 1345.12 27.2715C1343.75 24.8915 1342.42 23.2914 1339.71 22.5762ZM1250.4 83.8692C1232.21 83.7151 1214.01 83.5609 1195.88 84.1244C1195.51 89.6466 1178.74 152.708 1175.73 158.045C1176.5 158.018 1177.34 158.023 1178.2 158.027C1180.42 158.039 1182.81 158.052 1184.71 157.527C1188.14 155.493 1191.15 152.613 1194.07 149.815C1194.76 149.151 1195.45 148.492 1196.14 147.85C1198.3 145.834 1200.22 144.005 1201.96 142.348C1216.05 128.91 1218.34 126.725 1243.39 127.037L1277.08 127.047C1280.09 124.982 1294.48 107.055 1295.12 103.445C1295.17 103.17 1295.19 102.893 1295.2 102.614C1296.09 99.4381 1293.39 88.734 1291.75 85.8014C1291.37 85.1196 1290.91 84.4943 1290.37 83.9256C1277.07 84.0951 1263.74 83.9822 1250.4 83.8692Z" fill="#E52DDD"/>
</svg>
